<svg width="21" height="20" viewBox="0 0 21 20" fill="none" xmlns="http://www.w3.org/2000/svg">
<path d="M19.0323 19.8641C19.6177 19.8641 20.0925 19.3894 20.0925 18.8038V1.71498C20.0925 1.12935 19.6178 0.654785 19.0323 0.654785H1.9435C1.35787 0.654785 0.883301 1.12935 0.883301 1.71498V18.8038C0.883301 19.3893 1.3578 19.8641 1.9435 19.8641H19.0323Z" fill="#3C5A99"/>
<path d="M14.1372 19.8642V12.4253H16.6341L17.008 9.52625H14.1372V7.67538C14.1372 6.83603 14.3703 6.26404 15.5739 6.26404L17.109 6.26337V3.67042C16.8436 3.63509 15.9323 3.55615 14.8721 3.55615C12.6587 3.55615 11.1434 4.90719 11.1434 7.38826V9.52625H8.64014V12.4253H11.1434V19.8642H14.1372Z" fill="white"/>
</svg>
