<svg width="105" height="120" viewBox="0 0 105 120" fill="none" xmlns="http://www.w3.org/2000/svg">
<path fill-rule="evenodd" clip-rule="evenodd" d="M81.6641 36.6104C80.8502 31.6734 83.5217 30.6491 81.6641 25.9561C77.5358 17.2603 66.2853 17.635 58.0295 16.9664C48.8213 16.6126 39.5012 17.8313 31.0123 21.5312C28.9846 22.4149 27.0343 23.4542 25.1647 24.6349C23.5481 25.656 23.7704 27.5975 24.7897 28.6566C17.4394 39.0913 21.6434 53.0979 15.7785 64.0817C14.6951 66.0451 13.2621 67.8056 12.3204 69.8485C10.8889 72.9539 10.7972 77.4033 14.0435 79.4656C18.6155 81.9258 21.1669 77.0548 23.4134 84.1158C34.6329 108.736 57.1907 110.123 78.6051 97.2866C80.4578 96.2534 82.3487 95.0857 83.7477 93.4626C86.9233 89.8799 86.5493 84.8418 86.6195 80.3678C86.6587 77.746 86.6653 75.1237 86.6398 72.5014C86.5398 61.8794 83.0282 47.1449 81.6641 36.6104Z" fill="#FFDBB4"/>
<path fill-rule="evenodd" clip-rule="evenodd" d="M36.0526 7.08179C48.9823 1.20202 63.6473 -1.02772 77.7513 0.434823C84.7127 1.15557 91.5825 2.70188 98.1203 5.21371L98.6934 5.43573C100.307 6.05843 102.047 6.67654 103.273 7.9441C104.701 9.41721 105.101 11.6448 104.081 13.4646C103.288 14.8785 101.863 15.8928 100.343 16.434C100.878 16.8736 101.386 17.364 101.863 17.9114C102.666 18.8286 102.727 20.1367 101.863 21.0415C100.197 22.7851 98.0365 24.0467 95.7091 24.6513C95.9705 25.9173 95.8292 27.3186 95.2684 28.5803C93.6593 32.2022 89.1263 32.6339 85.6381 32.4188L85.5327 32.4121L85.3387 34.6376C85.2354 35.8233 84.5271 36.7427 83.3254 36.9244C83.2832 36.9308 83.2408 36.935 83.1989 36.939C85.1005 43.8335 86.2495 50.941 87.3099 58.0066C87.864 61.6949 88.3599 65.3918 88.8347 69.091L88.9923 70.3241C89.4982 74.3123 90.1307 78.3407 90.35 82.3584C90.546 86.0042 89.8524 89.4852 87.6114 92.4271C85.6002 95.0648 82.8574 97.0409 79.908 98.5077C73.2439 101.824 66.2298 104.292 58.8595 105.438L58.368 105.514C55.523 105.949 52.5917 106.316 49.7773 105.527C47.3046 104.833 44.7113 103.045 45.2699 100.173C45.4576 99.203 46.811 99.1608 47.2749 99.9111L47.3819 100.083C47.9381 100.968 48.5476 101.79 49.5182 102.246C50.6543 102.783 51.972 102.933 53.2137 102.948C56.6817 102.988 60.2931 102.122 63.6325 101.253C69.8686 99.6302 76.2734 96.9839 81.3816 92.9745C83.5552 91.2711 85.3008 89.1407 85.9164 86.3994C86.6775 83.02 85.9775 79.3255 85.6318 75.9291C84.9202 68.9209 84.0735 61.9257 83.18 54.9382L83.0007 53.5408C82.2483 47.6991 81.4577 41.8553 81.0822 35.9797C80.9262 35.7663 80.8208 35.5232 80.7787 35.2569L80.7198 34.8744C80.669 34.5468 80.6606 34.2466 80.6964 33.9698C80.6985 32.9088 80.7281 31.8542 80.7892 30.793C80.7995 30.603 80.8082 30.4127 80.8145 30.2246C79.714 30.4677 78.6051 30.6643 77.4919 30.8312C69.6662 32.0127 61.7183 32.3086 53.8293 31.721C49.8933 31.427 45.9869 30.9221 42.0929 30.2902C40.1109 29.9689 38.1357 29.6138 36.1667 29.2165C34.7436 28.9312 33.3501 28.5444 31.9502 28.1809C30.5061 30.2881 29.726 32.8813 29.8778 35.4281C30.0486 38.3342 31.9797 40.9697 31.4379 43.9392C30.9294 46.7182 28.5544 47.5799 26.2097 48.2682L25.2124 48.557C24.4452 48.7816 23.8881 48.9982 23.7493 49.9225C23.511 51.5097 23.8041 53.2956 23.8652 54.8913C23.939 56.7787 24.0358 58.6661 24.0802 60.5534C24.1034 61.5299 24.1412 62.5105 24.1393 63.487C24.1372 64.1802 24.0339 64.6536 23.7661 65.1015C23.9727 65.3616 24.158 65.6427 24.3227 65.9407C24.3754 66.0379 24.2447 66.1413 24.1669 66.0612C23.958 65.8435 23.7364 65.647 23.5026 65.4713C23.3845 65.6174 23.2475 65.7653 23.0871 65.9238L23.0746 65.9069C22.5729 66.4078 21.776 66.4564 21.1538 65.9238L20.9906 65.782C20.5352 65.3819 20.2223 65.0486 20.0957 64.3873C20.0894 64.3535 20.0828 64.3197 20.0788 64.2859C18.9214 64.2457 17.745 64.5202 16.7036 65.0974C15.0529 66.0126 13.8912 67.3166 13.2042 68.9271C13.478 69.2484 13.7985 69.5358 14.1716 69.7767C14.2243 69.8127 14.1779 69.8909 14.121 69.8634C13.7394 69.6837 13.3979 69.4618 13.0922 69.2019C12.8455 69.8359 12.6727 70.5165 12.5673 71.2372C12.1962 73.7818 12.8582 76.8908 15.1519 78.3407C16.1449 78.9684 17.2791 79.3086 18.4555 79.3129C19.0287 79.3148 19.5244 79.2178 20.081 79.0804C20.4583 78.9874 20.8336 78.8521 21.2278 78.8521C21.5651 78.8521 21.8772 78.9367 22.166 79.1057L22.0859 79.1128C21.8912 79.1311 21.9287 79.1393 22.1997 79.1393C23.043 79.1755 23.5256 80.0336 23.1379 80.7796L23.087 80.8949C23.0763 80.9182 23.0672 80.9374 23.0601 80.9527L23.0294 81.1506C23.0264 81.1694 23.0232 81.1888 23.0198 81.2087L23.0081 81.2488C23.006 81.2552 23.0036 81.2615 23.0008 81.2679L24.2656 83.2014C25.8162 85.5667 27.4014 87.9228 29.2053 90.0833C30.4703 91.5987 31.8111 93.0844 33.2278 94.4603C34.5012 95.6967 36.0275 96.2927 37.4695 97.265C38.2392 97.7807 38.4646 98.8607 37.7649 99.556C35.7113 101.6 32.804 99.9766 31.1196 98.3154C29.5258 96.7408 28.1491 94.8471 26.9622 92.9513C24.8561 89.5803 23.18 85.9958 22.4464 82.1048C22.1407 82.3859 21.7507 82.5613 21.3564 82.6987C20.5658 82.9734 19.6951 83.0876 18.8603 83.1172C17.2602 83.17 15.6579 82.7811 14.218 82.0921C8.35926 79.2917 7.49911 70.9053 11.081 65.9597C10.598 64.5556 10.3282 63.0321 10.0352 61.7329L9.90185 61.1521C8.42047 54.6652 7.4262 47.8355 10.0522 41.479C10.3895 40.659 10.769 39.8601 11.218 39.095C11.5785 38.48 12.1983 37.8248 12.3691 37.1252C12.7486 35.5887 10.4063 33.974 9.72328 32.7545C8.92005 31.3237 8.8062 29.635 9.90037 28.3265C10.0395 28.1619 10.1911 28.0095 10.3557 27.8765C9.3185 25.9913 9.27001 23.6199 10.6361 21.7601C11.5342 20.5342 12.9046 19.6762 14.4014 19.4162C15.3164 19.2577 16.4169 19.3169 17.4225 19.6001C22.9289 14.4748 29.2116 10.1929 36.0526 7.08179ZM14.9065 71.2118C16.3762 69.912 17.9995 69.2314 20.0023 69.4026C22.0157 69.5757 24.4401 70.4108 25.6226 72.1417C26.5568 73.5092 24.6531 75.5149 23.2827 74.4877C22.0346 73.5514 21.2017 72.4947 19.6524 71.9917C18.2607 71.5415 16.5383 71.2519 15.0815 71.5098C14.9213 71.5373 14.7613 71.3386 14.9065 71.2118Z" fill="black"/>
<path fill-rule="evenodd" clip-rule="evenodd" d="M67.3521 94.4923L67.8027 94.3725C69.4167 93.9326 71.0916 93.2343 72.6328 94.1913C73.1892 94.5369 73.2731 95.2717 72.8332 95.7473C71.5848 97.0966 69.7421 96.8348 68.0538 96.8483L67.9709 96.8492C66.2723 96.8727 64.5864 96.788 62.9054 96.5443C62.6837 96.5121 62.64 96.1438 62.8413 96.0554C64.305 95.4135 65.8104 94.9073 67.3521 94.4923ZM70.0901 69.8231C71.6855 70.7932 74.1163 73.0553 72.4001 75.4603C70.3799 77.5809 67.4713 75.1495 66.038 74.0499C64.709 73.1977 63.2157 75.3895 64.4488 76.3846C74.8059 84.0556 79.0091 70.0768 70.897 68.6825C70.0039 68.5288 69.6722 69.523 70.0901 69.8231ZM81.1821 57.0656C83.7558 56.9867 83.7581 61.077 81.1821 61.066C80.4131 61.0626 79.6441 61.0624 78.8751 61.0607C79.3219 62.6905 79.0667 64.6338 78.2596 66.0027C77.7272 66.9063 76.4531 67.0705 75.7088 66.3316C74.4239 65.0559 74.1705 63.1903 74.6246 61.4987L74.5312 61.2774C74.5008 61.2049 74.479 61.1315 74.4613 61.0578C71.9756 61.0599 69.49 61.0659 67.0044 61.0699L63.2759 61.0738C60.8552 61.0747 58.4334 61.0943 56.0125 61.0717C56.0423 61.1167 56.0721 61.1615 56.0964 61.2129C56.2475 61.531 56.3115 61.9326 56.359 62.2764C56.4401 62.8665 56.4304 63.502 56.3375 64.0898C56.2696 64.5193 56.145 65.0307 55.906 65.4355L55.9046 65.4439C55.792 65.9241 55.6498 66.3838 55.2786 66.7302C55.167 66.834 55.0582 66.908 54.9433 66.9604C54.7263 67.1876 54.447 67.3378 54.0801 67.3426C53.8853 67.3448 53.6717 67.288 53.4646 67.2072C53.1463 67.2339 52.8175 67.0897 52.5359 66.9621C52.3101 66.8596 52.1028 66.7234 51.9357 66.5459C51.8573 66.5273 51.7783 66.4967 51.6993 66.4478C51.2151 66.1498 51.03 65.5526 51.0049 65.0132C51.0032 64.9804 51.0044 64.946 51.0034 64.9128C50.9854 64.8397 50.9694 64.7661 50.9571 64.6922C50.7961 63.7337 50.9918 62.6543 51.1967 61.7229C51.2482 61.4898 51.2907 61.219 51.3539 60.9572C50.8707 60.9384 50.3879 60.9198 49.9048 60.8999C48.6946 60.8504 47.2177 61.0125 46.0982 60.5009C46.0166 60.4639 46.0386 60.3552 46.0982 60.3128C47.1317 59.5737 48.7376 59.454 49.9824 59.2106L50.0882 59.1894C51.5725 58.8849 53.056 58.6287 54.5554 58.41C57.4415 57.989 60.3646 57.7624 63.2759 57.5992C69.2364 57.2653 75.2155 57.248 81.1821 57.0656Z" fill="black"/>
<path fill-rule="evenodd" clip-rule="evenodd" d="M80.3349 48.5046C85.2938 48.5046 88.1236 49.5715 89.1606 49.6546L89.1918 49.6568C89.6231 49.6844 90.0101 49.7205 90.416 49.8775C91.9087 50.4526 92.1519 52.0188 91.2808 53.0059C91.2197 55.0483 91.4882 57.4347 91.0275 59.4837C90.4591 68.1218 86.3983 69.5796 84.0901 70.1116C82.9313 70.3788 81.5578 70.4851 80.3268 70.2031C78.2269 70.1248 76.1508 69.4671 74.3746 68.322C71.9008 66.7258 70.0634 64.2725 69.4672 61.3611C69.1846 59.9733 69.0525 58.5287 69.2063 57.1181L69.2291 56.9237C68.425 56.539 67.4933 56.4662 66.5327 56.4322C66.0739 56.4159 65.6216 56.4012 65.1823 56.4207C64.7529 56.4687 64.3285 56.5326 63.9029 56.6196C63.4382 56.7599 62.9992 56.9914 62.5939 57.3581L62.566 57.8934C62.4899 59.2304 62.3144 60.5714 62.0438 61.8831C61.6442 63.8186 61.0014 65.6671 59.6334 67.0399C59.1704 67.7318 58.5974 68.3493 57.9018 68.8841C55.375 70.8304 51.9419 71.545 48.7911 71.2759C42.3946 70.7298 38.6973 65.6501 37.8452 63.4788L37.7943 63.3473C37.1788 61.7331 36.6883 59.6387 34.7433 59.2919L34.3296 59.2175C33.4421 59.0509 32.6231 58.8189 32.1027 57.9526C31.8746 57.5744 31.7572 57.1514 31.7285 56.7202C31.4249 56.7435 31.1217 56.7658 30.8195 56.7875C28.4093 57.2974 13.9528 57.7297 12.7988 57.7297C12.7988 57.7297 10.5807 58.6637 9.64426 57.94C8.99516 57.4369 8.78162 56.7662 9.13894 56.0065C9.67808 54.8634 12.1654 54.1758 13.2699 53.9581C13.2699 53.9581 31.0935 54.1061 32.3763 53.8628C33.17 53.0441 34.5898 53.1561 35.7761 53.0267C36.7583 52.3261 38.1322 51.8569 39.2174 51.5428C39.4386 51.459 39.6576 51.3779 39.8706 51.3015C41.8601 50.5927 43.9282 50.2173 46.0277 50.0157C48.1928 49.8098 50.3642 49.903 52.5166 50.198C53.4236 50.321 54.3222 50.4802 55.2145 50.6884C56.8121 50.8991 58.4005 51.2461 59.9987 51.6578L60.3185 51.741C62.0015 52.1825 63.731 52.5642 65.4732 52.265C66.8916 52.023 68.2556 51.4769 69.5633 50.8864L69.7336 50.8092C72.6091 49.4957 77.0997 48.5046 80.3349 48.5046ZM55.0414 53.3071C53.9805 53.0736 53.5274 54.7101 54.5917 54.9442C55.3454 55.1099 55.9842 55.4902 56.4158 56.1343L56.4612 56.2043C57.0403 57.1262 58.5047 56.2752 57.9216 55.3474C57.2655 54.3033 56.246 53.5719 55.0414 53.3071ZM86.1162 52.2924C85.7422 52.0288 85.1761 52.2244 84.959 52.5969C84.72 53.007 84.8767 53.4637 85.227 53.732L85.2626 53.7582C85.5839 53.9847 85.8969 54.3908 85.9362 54.8069L85.9396 54.859C85.9817 55.9479 87.6734 55.9534 87.6311 54.859C87.5899 53.7883 86.9702 52.8938 86.1162 52.2924Z" fill="black"/>
</svg>
