<svg width="101" height="124" viewBox="0 0 101 124" fill="none" xmlns="http://www.w3.org/2000/svg">
<path fill-rule="evenodd" clip-rule="evenodd" d="M82.2969 36.0848C80.8047 30.6962 81.0182 30.1134 78.7942 24.9664C71.4196 10.0134 22.1381 15.02 17.1086 29.9465C14.38 38.0441 15.021 49.4484 14.3107 56.4701C14.0934 60.1929 13.8799 63.916 13.6587 67.6386C13.5823 68.9242 13.505 70.2097 13.4263 71.4952C13.2731 73.9976 13.124 76.4999 12.9849 79.0032C12.0583 86.7145 15.924 87.4988 22.5545 87.2706C24.3075 91.5105 27.1466 95.0497 30.6537 97.9294C29.8072 100.238 32.8768 101.433 34.5326 102.356C43.5416 107.399 54.6079 110.475 64.5867 107.639C67.5187 106.806 79.6271 103.92 83.3501 94.9873C85.1783 90.6006 88.8949 67.8835 83.9937 47.4485L82.2969 36.0848Z" fill="#FFDBB4"/>
<path fill-rule="evenodd" clip-rule="evenodd" d="M50.7973 0.936777C52.1907 0.689709 53.7489 0.784816 54.5477 2.15648C54.7205 2.45216 54.8302 2.75037 54.8829 3.04415C58.6903 2.18607 62.6432 2.09307 66.5329 2.65527C67.6924 2.82202 68.0993 4.37122 67.5891 5.25699C67.5364 5.34787 67.4837 5.43642 67.4268 5.52329C68.6453 5.62241 69.8618 5.83376 71.0677 6.15945C71.9257 6.39194 72.7268 7.50575 72.3455 8.41879C72.3115 8.4991 72.2757 8.57941 72.24 8.65952C74.1351 8.97887 75.9461 9.72493 77.5294 10.9296C77.7191 11.0712 77.8941 11.2551 78.0395 11.4643C81.5792 11.0647 85.2243 11.7983 88.3846 13.5102C89.27 13.9898 89.698 15.3722 89.0971 16.2345C88.9095 16.5029 88.7135 16.7587 88.5026 17.006C89.8772 17.5153 91.0936 18.3394 91.9137 19.6816C92.8055 21.1378 93.0796 23.0125 92.601 24.6146C93.6003 25.6354 94.1231 27.1992 93.7669 28.7674C93.4422 30.1984 92.5673 31.107 91.4457 31.6525C91.6734 32.35 91.49 33.1425 90.9735 33.6813C90.1808 34.5077 89.2321 35.1417 88.199 35.5583C88.1969 35.8267 88.1295 36.1036 87.9946 36.3614C87.0627 38.1535 85.0536 39.3436 83.0107 39.5232C83.698 42.4164 84.263 45.3459 84.8111 48.2583C85.7853 53.4385 86.5399 58.6694 86.9995 63.9213L87.0553 64.5708C87.8039 73.4577 87.978 82.7677 86.1752 91.5344C85.0262 97.1162 81.5434 101.821 76.8969 105.008C72.1724 108.25 66.4001 109.863 60.7205 110.118C57.8238 110.247 54.8999 110.002 52.0623 109.406C50.7149 109.123 49.4142 108.721 48.1345 108.21C46.7578 107.658 45.6238 106.845 44.4598 105.929C43.8548 105.454 44.2007 104.332 44.9173 104.19C45.4296 104.086 45.9356 103.974 46.4458 103.881C46.9138 103.795 47.4242 104.264 47.327 104.697L48.3141 104.952C48.6431 105.037 48.972 105.123 49.3 105.211L49.7915 105.346C51.1893 105.737 52.6186 106.067 54.0522 106.301C56.97 106.777 60.0058 106.788 62.9384 106.418C67.8695 105.798 72.906 104.036 76.7409 100.787C78.6214 99.1937 80.1878 97.3064 81.3241 95.1147C82.7683 92.331 83.2047 89.2305 83.5673 86.1513C84.6151 77.2471 84.2925 68.3303 83.4787 59.424C83.074 54.994 82.5216 50.5726 81.9355 46.1617C81.634 43.9003 81.3094 41.6346 81.0419 39.3647C80.445 39.2041 79.8758 38.9378 79.3656 38.551C79.0199 38.2889 78.8175 37.9844 78.7289 37.6739C78.2137 37.5765 77.72 37.2931 77.3642 36.8139L77.3185 36.7503C76.3846 35.3953 74.7699 34.6199 73.275 34.0556C72.3684 33.7132 71.445 33.415 70.5258 33.1108C69.5687 32.7917 68.5568 32.3204 67.5512 32.1978C66.4106 32.0625 65.2616 32.407 64.1105 32.2845C63.0649 32.1703 62.1436 31.7939 61.3911 31.0417C61.1276 30.7796 60.8997 30.4774 60.7184 30.1519C57.2082 30.9041 53.521 29.9554 49.8737 30.1836C47.4746 30.3358 45.3579 31.8237 42.9335 31.7836C42.2715 31.773 41.6306 31.5405 41.1647 31.1326C38.8775 31.5701 36.5519 32.4111 34.4015 33.1339C32.2764 33.8485 30.2315 34.8101 28.1317 35.59C28.1296 35.5921 28.1296 35.5921 28.1296 35.5942C27.8555 36.484 27.0375 36.8684 26.1668 36.7122C23.3186 36.2029 20.9195 34.402 18.1472 33.7428C17.384 36.5305 16.5639 39.2821 16.0033 42.1249C15.436 44.993 15.0375 47.899 14.774 50.8114C14.5084 53.7344 14.3819 56.687 14.3756 59.6205C14.3734 61.1169 14.4114 62.6172 14.462 64.1136C14.503 65.3672 14.7413 66.9523 14.2895 68.1579L14.2491 68.2603H14.247C14.1921 68.4359 13.9455 68.5416 13.8063 68.3789C12.9567 67.3895 12.7543 65.8152 12.5182 64.5722C12.2315 63.0634 12.0481 61.5396 11.9007 60.0113C11.6054 56.9446 11.54 53.8908 11.696 50.8114C12.0017 44.7499 12.9715 38.3479 15.0418 32.6184C14.4051 32.6774 14.1205 31.7371 14.0783 31.2066C13.9976 30.1405 14.1642 29.0091 14.3448 27.9399L14.5335 26.833C14.7125 25.7882 14.9019 24.7706 15.2568 23.7544C16.1087 21.3152 17.3334 19.0243 18.8597 16.9425C21.9736 12.6965 26.2893 9.48167 31.2034 7.62834C31.5112 7.5121 31.8021 7.51421 32.0593 7.60276C36.5308 5.18724 41.3376 3.32736 46.2202 2.00431C47.7297 1.5964 49.2581 1.21174 50.7973 0.936777ZM13.6628 69.0825C15.693 67.8062 19.882 67.4722 21.0141 70.1921C21.0605 70.302 20.9298 70.3992 20.8328 70.3738L20.5558 70.3037C19.4916 70.0393 18.572 69.8875 17.4807 70.3255C16.5215 70.7101 15.5897 71.3122 14.9551 72.1407C13.4551 74.1001 13.2924 76.7615 13.4323 79.1381L13.4393 79.2529C13.57 81.3387 14.1034 83.8791 16.1378 84.9105C17.1687 85.4326 18.284 85.3945 19.4034 85.3861C20.6789 85.3776 21.9818 85.5171 23.2003 85.9104C23.8813 86.13 24.2017 87.0346 23.6367 87.5653C23.4491 87.7407 23.253 87.9054 23.0464 88.0533C23.6642 88.7129 24.2713 89.3808 24.8595 90.0846C25.8567 91.2785 26.9171 92.4325 28.0239 93.5252C29.0949 94.5798 30.2291 95.6006 31.4519 96.4756C32.7379 97.3931 34.2769 98.0375 35.3901 99.1619C36.1153 99.8934 35.9909 100.914 35.3901 101.654C33.8985 103.492 31.3596 101.559 29.9334 100.472L29.7611 100.341C28.279 99.2168 26.8708 98.0037 25.6712 96.5749C24.4484 95.1166 23.3901 93.5653 22.6079 91.8259C22.1483 90.803 21.8553 89.8373 21.6972 88.8271C19.1336 89.943 15.9017 89.5877 13.6037 88.0174C10.5531 85.9335 9.6972 82.1082 9.68652 78.6165L9.68683 78.4095C9.70941 75.0155 10.5988 71.0088 13.6628 69.0825ZM19.4467 74.0018L19.5407 74.0028C20.6698 74.0274 21.6766 74.435 22.6357 74.9967L22.7347 75.0554C23.6665 75.6112 25.0031 76.0569 25.4965 77.097C25.7916 77.7247 25.7705 78.4433 25.2561 78.963C24.3243 79.9058 22.9181 79.7494 21.9104 79.0137C21.1577 78.4623 20.6623 77.6359 19.9244 77.0778C18.5372 76.0255 16.3489 76.0846 14.905 76.9956C14.8162 77.0526 14.73 76.9448 14.7698 76.8603C15.6566 75.0411 17.4141 73.9947 19.4467 74.0018Z" fill="black"/>
<path fill-rule="evenodd" clip-rule="evenodd" d="M64.9709 94.2309C63.5507 93.6513 62.2835 92.6845 61.3571 91.4494C61.035 91.0201 60.9515 90.5667 61.019 90.152C61.095 89.6857 61.3708 89.2632 61.7468 88.9797C62.124 88.6953 62.5959 88.5551 63.0521 88.6266C63.4485 88.6887 63.8431 88.9058 64.1554 89.3561L64.2206 89.4462C64.7714 90.1916 65.4891 90.8032 66.3069 91.1974C67.0951 91.5774 67.9766 91.7548 68.8889 91.6516C70.6263 91.4553 71.8238 90.5153 73.0967 89.2388C73.2544 89.0777 73.4123 88.9114 73.571 88.7425C73.6711 88.5895 73.8102 88.4911 73.9645 88.4394C74.1359 88.3821 74.3298 88.3854 74.5074 88.4474C74.6787 88.5071 74.8318 88.6205 74.9344 88.7713C75.032 88.9146 75.0873 89.0917 75.0694 89.2953C74.9529 90.6182 74.2615 91.7988 73.2795 92.7258C72.1889 93.7554 70.7431 94.4677 69.382 94.7175C67.8825 94.9927 66.3545 94.7955 64.9709 94.2309ZM70.0897 73.823C71.6851 74.7931 74.116 77.0552 72.3997 79.4603C70.3795 81.5808 67.4709 79.1494 66.0376 78.0498C64.7086 77.1976 63.2153 79.3894 64.4484 80.3845C74.8055 88.0555 79.0087 74.0767 70.8967 72.6824C70.0035 72.5288 69.6718 73.5229 70.0897 73.823ZM51.5294 64.8997C51.7057 62.7108 55.0379 62.2138 55.3694 64.3797C55.6662 66.3199 55.3168 68.1022 54.4432 69.8491C53.6085 71.5179 51.5105 70.7393 51.3518 69.2197C51.1391 67.1827 51.4198 66.2612 51.5294 64.8997ZM76.8954 63.9307C77.36 63.322 78.0308 62.9065 78.8344 63.1413C81.3453 63.8753 80.6053 67.4414 79.7234 69.1772C79.2443 70.1198 77.6955 70.3589 76.9956 69.5289C75.8547 68.1754 75.3084 65.4725 76.7587 64.1393C76.798 64.0704 76.8417 64.0008 76.8954 63.9307ZM54.4079 55.3221L54.8045 55.2527C56.0315 55.0404 57.5572 54.8364 58.4252 55.8233C58.8855 56.3466 59.044 57.3192 58.4252 57.8201C57.3367 58.7014 56.1333 58.3599 54.829 58.4345C53.754 58.4962 52.7209 58.6742 51.6855 58.9703C49.414 59.6197 47.5631 60.8054 45.623 62.1073C45.3684 62.2781 45.1086 61.9524 45.23 61.7142C46.35 59.5198 48.5203 57.7172 50.6943 56.6184C51.8545 56.0319 53.1243 55.5453 54.4079 55.3221ZM74.6064 54.3391L74.91 54.4013C78.2136 55.0921 82.5058 56.4721 84.0702 59.7183C84.1299 60.1773 84.0669 60.2757 84.0157 60.34L83.9986 60.3614C83.9564 60.4163 83.9227 60.4919 83.7238 60.5544C83.6686 60.5412 83.6129 60.5273 83.5566 60.5125C82.8395 60.3245 82.2721 60.0655 81.7228 59.7968L81.1273 59.5033C80.4363 59.1643 79.7392 58.8378 79.0005 58.5967C77.424 58.0822 75.8024 57.7199 74.1557 57.5264C73.7988 57.4845 73.4551 57.364 73.184 57.1574C72.9266 56.9614 72.73 56.69 72.6404 56.3292C72.5242 55.8623 72.5576 55.5089 72.808 55.0877C72.9963 54.7714 73.2657 54.5521 73.5751 54.4262C73.8904 54.2979 74.2495 54.2676 74.6064 54.3391Z" fill="black"/>
<path fill-rule="evenodd" clip-rule="evenodd" d="M91.1694 62.7092C89.1552 76.339 75.0945 77.8463 72.5962 64.3152C72.9972 64.1396 73.2856 63.7938 73.2254 63.1226C73.2112 60.1738 74.1262 57.0573 76.7853 55.4174C79.533 53.7253 82.7487 53.5575 85.9285 53.6002C91.9965 53.4556 91.8689 58.5295 91.1694 62.7092ZM70.3954 56.7815C68.4911 56.7012 66.0818 56.7684 64.3758 57.9292C63.9068 56.6657 62.6882 55.3167 61.4569 54.5953C66.0334 54.7293 70.7442 54.2787 75.3549 53.929C74.2513 54.6816 73.2245 55.8123 72.5571 57.1195C71.9379 56.7892 71.051 56.82 70.3954 56.7815ZM62.0012 64.1545C56.7206 82.3382 43.5394 74.4126 42.1024 72.0823C39.5103 68.226 39.0227 58.8517 41.2805 56.3453C44.5125 54.0788 49.0879 54.6621 52.9059 54.6065C59.9202 54.7012 64.9019 56.8004 62.0012 64.1545ZM97.4047 55.791C95.9699 55.6033 94.4368 55.5655 93.1028 56.1974C92.6921 54.451 91.4028 52.991 89.9469 52.3485C89.7707 52.1274 89.7971 52.0087 89.1952 52.0418C85.4991 50.9306 81.3631 51.5185 77.8113 52.6581C72.2017 53.1307 66.3164 53.5033 60.6597 54.1545C55.3607 51.7738 39.3692 51.4249 38.3754 57.2926C37.1253 57.1056 34.9964 56.1213 33.946 57.4564C26.2408 56.1496 18.2792 57.9658 10.5407 58.7746C8.5928 59.1335 7.58949 63.0008 9.80062 62.9479C11.0437 62.6104 9.76238 60.5398 11.4363 60.384C18.9027 59.5682 26.2058 58.4109 33.7487 58.2754C33.4863 59.5784 38.7375 59.6631 38.8151 58.9023C38.8263 58.908 38.8381 58.9118 38.8495 58.9168C37.5519 63.7547 38.7232 70.717 41.0682 73.7169C44.3539 77.645 52.6028 78.7719 56.2605 76.2446C60.9787 73.9119 65.8871 62.2027 64.5084 58.3126C67.0106 57.5192 69.4844 57.7574 72.0813 58.1615C71.4868 59.8415 70.4604 63.9772 71.937 64.3359C71.6659 72.5468 79.1357 77.6702 86.0218 74.3019C91.9818 71.503 94.0662 62.6436 93.3369 57.2662C94.0789 58.7004 100.309 57.139 97.4047 55.791Z" fill="black"/>
</svg>
