<svg width="108" height="126" viewBox="0 0 108 126" fill="none" xmlns="http://www.w3.org/2000/svg">
<path fill-rule="evenodd" clip-rule="evenodd" d="M91.15 42.7076C84.1983 32.8365 66.7292 31.7245 55.6887 31.787C33.8854 31.605 29.32 56.7293 28.1813 74.3347C25.8557 74.7313 23.5941 75.5441 22.0596 77.3762C20.1909 79.6073 19.5455 83.4368 21.2974 85.9319C22.461 87.5888 24.2983 88.1425 26.2202 88.2347C32.5849 87.6258 33.8902 93.3134 37.025 97.5781C45.069 108.472 59.0043 112.006 71.7855 112.06C76.1267 112.176 81.3564 112.503 84.1366 108.408C92.9177 93.1493 93.109 72.9123 93.6503 55.6205C93.7247 51.1937 93.7059 46.5072 91.15 42.7076Z" fill="#FFDBB4"/>
<path fill-rule="evenodd" clip-rule="evenodd" d="M106.153 51.2701C106.242 51.4373 106.307 51.6224 106.343 51.8239C106.457 52.4632 106.222 52.952 105.914 53.4267C105.954 53.7577 105.977 54.0785 105.994 54.3607C106.093 55.945 105.73 58.1166 104.337 58.7633C104.315 58.7895 104.293 58.8155 104.27 58.8415C104.163 59.017 103.999 59.1687 103.783 59.2795C103.729 59.3169 103.675 59.3524 103.62 59.3828C103.603 59.398 103.584 59.4112 103.565 59.4249C103.557 59.4304 103.55 59.436 103.542 59.4418C103.572 59.4111 103.6 59.3792 103.628 59.3481C102.858 59.6563 102.113 59.7199 101.319 59.6263C100.827 59.8042 100.335 59.9372 99.9197 60.0401C98.6229 60.3611 96.9507 60.6181 95.6868 60.0708C95.3185 59.9114 95.013 59.7003 94.7834 59.4485C94.8024 60.4292 94.8311 61.4097 94.8734 62.3903C94.9599 64.8695 94.9557 67.3465 94.9367 69.8277C94.9156 72.6197 94.8376 75.4137 94.6879 78.2036C94.6183 79.6048 94.5066 81.0039 94.3569 82.3988C94.2304 83.7578 94.0828 85.1147 93.9121 86.4673C93.5094 89.2487 92.8453 92.0512 92.0358 94.7396C91.6837 95.9062 91.2979 97.0877 90.8594 98.2417C90.6739 98.7722 90.4778 99.2963 90.2649 99.8162C89.1412 102.541 87.7413 105.17 85.8503 107.44C84.8172 108.678 83.6767 109.792 82.4033 110.728C81.3808 111.527 80.274 112.203 79.0576 112.736C76.4434 113.882 73.5256 114.139 70.6985 114.097C69.62 114.083 68.4768 113.892 67.4076 113.713L67.3422 113.702C66.5073 113.565 65.662 113.381 64.825 113.165C64.0829 112.992 63.3492 112.791 62.6261 112.556C61.7554 112.326 60.9206 111.994 60.1258 111.565L58.7175 111.035C58.1293 110.813 57.558 110.549 57.0035 110.246L55.4729 109.53C54.8384 109.223 54.2207 108.887 53.6177 108.518C53.5545 108.484 53.4828 108.427 53.4554 108.363C53.3902 108.327 53.3246 108.292 53.259 108.256C53.1676 108.207 53.0761 108.157 52.9852 108.105C52.9599 108.093 52.9789 108.019 53.0126 107.947C52.9852 107.89 52.9895 107.826 53.0653 107.769C53.1223 107.725 53.2129 107.738 53.3078 107.767C53.2994 107.761 53.293 107.755 53.2867 107.748C53.2534 107.73 53.2203 107.712 53.1874 107.695C53.1161 107.656 53.0454 107.618 52.9747 107.579C52.8693 107.522 52.8524 107.374 52.9515 107.296C52.9789 107.275 53.0105 107.264 53.0422 107.262C53.0411 107.262 53.04 107.262 53.039 107.261C53.0379 107.261 53.0369 107.26 53.0358 107.26C53.0169 107.247 53.0316 107.188 53.059 107.123C53.0063 107.055 52.9895 106.973 53.0822 106.901C53.2094 106.801 53.4945 106.965 53.6275 107.041C53.6379 107.047 53.6473 107.052 53.6556 107.057C53.7384 107.103 53.822 107.148 53.9054 107.192C53.9558 107.219 54.0062 107.246 54.0562 107.273C54.0646 107.254 54.0815 107.237 54.1089 107.22C53.9128 107.116 53.7189 107.011 53.5249 106.905C53.4048 106.842 53.2488 106.708 53.4069 106.584C53.5334 106.482 53.8601 106.656 54.0162 106.744C54.0351 106.729 54.0562 106.723 54.0815 106.719C54.0543 106.704 54.0265 106.689 53.9985 106.674C53.957 106.651 53.9152 106.629 53.8749 106.605C53.6852 106.499 53.8138 106.169 54.0098 106.279C54.0214 106.287 54.033 106.294 54.0446 106.3C54.0562 106.307 54.0678 106.314 54.0794 106.322C54.2136 106.31 54.3993 106.414 54.4952 106.468L54.5095 106.476C55.1693 106.892 55.8566 107.256 56.5692 107.569C57.0499 107.797 57.5327 108.023 58.0176 108.243C58.494 108.479 58.9852 108.684 59.4891 108.858C60.7561 109.352 62.0358 109.813 63.3282 110.24C65.1391 110.737 67.0133 111.136 68.8939 111.293C69.1384 111.312 69.383 111.328 69.6275 111.337C69.8945 111.335 70.1614 111.333 70.4281 111.332C70.6964 111.33 70.9644 111.328 71.2319 111.326C72.1785 111.228 73.1252 111.132 74.0703 111.035L74.3478 111.007C74.7104 110.956 75.0646 110.893 75.4146 110.819C75.598 110.775 75.7814 110.728 75.9627 110.675C76.0049 110.67 76.047 110.662 76.0891 110.655C76.1102 110.651 76.1313 110.647 76.1525 110.644C76.5973 110.525 77.0337 110.384 77.4701 110.219C77.7442 110.107 78.0161 109.989 78.286 109.864C79.1777 109.447 80.0548 108.898 80.8812 108.268C81.3997 107.75 81.9182 107.233 82.4367 106.716C82.9533 106.201 83.47 105.686 83.9866 105.17L84.9332 103.876C86.1559 102.124 87.1236 100.171 87.9269 98.1783L89.2044 94.4881C89.3372 94.0443 89.4637 93.6004 89.5839 93.1545C89.8264 92.1569 90.0688 91.1593 90.3112 90.1639C90.3914 89.7982 90.4694 89.4347 90.5453 89.0712C91.0112 86.8076 91.2684 84.5102 91.4897 82.2129C91.8945 78.0324 92.0041 73.8392 92.0337 69.6417C92.0526 67.133 92.0316 64.6243 91.981 62.1177C91.9514 60.6636 91.9304 59.2095 91.9093 57.7554C91.8819 56.2126 91.8524 54.6676 91.8123 53.1247C91.8102 53.0909 91.8228 53.0613 91.8397 53.036C91.8355 52.8542 91.8334 52.6724 91.8313 52.4886C91.8292 52.3681 91.8755 52.3153 91.943 52.3047C91.9304 51.2036 91.9219 50.1045 91.9198 49.0055C91.9198 48.9336 91.9536 48.8871 91.9978 48.8597V48.5807C91.8144 47.8156 91.5656 47.0653 91.2431 46.3509C91.1335 46.0931 91.0112 45.8416 90.8763 45.5964C90.7097 45.2287 90.4926 44.8947 90.2269 44.5883C90.0056 44.2142 89.7336 43.8824 89.4174 43.5865C89.3531 43.54 89.2882 43.4935 89.2234 43.447C89.1586 43.4005 89.0938 43.354 89.0294 43.3075C88.9219 43.2504 88.7638 43.1511 88.6247 43.037C88.4993 42.9599 88.3745 42.8823 88.2497 42.8047C88.1247 42.7269 87.9997 42.6492 87.8741 42.572C87.7287 42.4959 87.8236 42.3057 87.9269 42.255V42.2486C87.9037 42.2381 87.8784 42.2254 87.851 42.2021C87.5474 41.9147 87.2311 41.6442 86.9023 41.3906C86.8432 41.4138 86.7737 41.4054 86.721 41.361C86.527 41.1792 86.3288 41.0038 86.1264 40.8347C85.6732 40.5367 85.1988 40.2641 84.7034 40.0231C83.9086 39.6469 83.0948 39.3236 82.26 39.0488C82.0976 38.9952 81.9342 38.9468 81.7715 38.8986L81.7184 38.8829C81.6199 38.8782 81.5215 38.8732 81.4231 38.8683C81.2649 38.8603 81.1068 38.8524 80.9486 38.8455C71.3957 38.4253 61.8176 38.6018 52.2864 39.3726C49.9382 39.5626 47.593 39.7889 45.2519 40.0512C44.8105 40.1007 44.3503 40.1392 43.881 40.1785C42.16 40.3226 40.3166 40.4769 38.8285 41.2202C38.7484 41.2604 38.6721 41.3028 38.5977 41.3466C38.726 42.1711 39.0341 42.9787 39.3334 43.7631C39.3789 43.8824 39.4242 44.0011 39.4686 44.1193C39.9879 45.5007 40.4531 46.9087 40.407 48.4046C40.3745 49.4479 40.1508 50.4509 39.8287 51.4312C39.6636 52.8288 39.2291 54.1787 38.7678 55.505C36.4979 62.0302 35.2623 68.711 35.3892 75.6375C35.3926 75.8231 35.35 75.985 35.2766 76.1228L35.2803 76.1499C35.3206 76.4438 35.3609 76.7378 35.4084 77.0308C35.5977 78.1981 34.0623 78.7786 33.5325 78.0049C33.4969 78.0402 33.4475 78.0645 33.402 78.0683C33.2671 78.081 33.0457 77.859 32.9825 77.7576C32.9002 77.6054 32.8138 77.4575 32.721 77.3159C32.7084 77.3095 32.6978 77.3053 32.6873 77.3011C32.7151 77.3588 32.7433 77.4171 32.7714 77.4748C32.8008 77.5355 32.83 77.5956 32.8581 77.654C32.9508 77.84 32.5945 77.9309 32.4891 77.7597C32.3943 77.6097 32.2994 77.4659 32.2045 77.3286C32.1497 77.3687 32.0886 77.3793 32.0485 77.3138C31.7091 76.7516 31.317 76.2697 30.8869 75.8597C30.2101 75.3059 29.4702 74.9699 28.629 74.7733C27.967 74.6782 27.2882 74.674 26.6325 74.7501C25.8799 74.8389 25.0872 75.0269 24.4062 75.3715C23.8528 75.7533 23.2972 76.1352 22.7416 76.517L22.7386 76.5191C22.6016 76.6628 22.4709 76.8129 22.3486 76.9693C21.9628 77.4702 21.6529 78.0049 21.3978 78.5734C21.3873 78.6093 21.3767 78.6453 21.3662 78.6791C21.2102 79.1567 21.109 79.6471 21.0647 80.1501C21.0615 80.4682 21.0589 80.7857 21.0563 81.1033C21.0536 81.4208 21.051 81.7384 21.0478 82.0565C21.1322 82.8828 21.343 83.686 21.6655 84.449C21.8173 84.8991 22.0556 85.3007 22.3781 85.6558C22.551 85.9559 22.7471 86.2285 22.9663 86.4821C23.4111 86.778 23.896 87.0295 24.4125 87.2282L24.4129 87.2283C24.5393 87.2621 24.6656 87.2959 24.7941 87.3212C25.4582 87.5769 26.1455 87.7143 26.856 87.7333C27.7541 87.7946 28.6332 87.7164 29.4934 87.4987C30.0246 87.4036 30.539 87.2493 31.0366 87.0359C31.513 86.7949 31.9621 86.5054 32.3816 86.1672C32.428 86.1376 32.4976 86.1545 32.5735 86.1926C32.5897 86.1808 32.6059 86.169 32.6221 86.1573C32.6986 86.1018 32.7748 86.0465 32.8496 85.9855C32.8918 85.9559 32.9298 85.9918 32.9487 86.0299L32.974 86.0108C33.1406 85.8967 33.5981 86.2539 33.3915 86.4652C33.48 86.5202 33.5685 86.5857 33.6487 86.6533C34.0155 86.6681 34.7555 87.3445 34.6163 87.4501C34.4097 87.6298 34.1926 87.7946 33.9712 87.951C34.1673 88.0969 34.4245 88.323 34.3043 88.4139C34.0893 88.6189 33.8553 88.7964 33.6065 88.9486C33.4378 89.0775 33.265 89.2001 33.0837 89.3121C32.8876 89.4284 32.6873 89.5277 32.4807 89.6207C32.8412 90.3203 33.1848 91.0262 33.5053 91.7448C33.7182 92.2541 33.9649 92.7466 34.2495 93.22C34.6121 93.9407 35.0464 94.617 35.5545 95.2468C35.9677 95.9443 36.4526 96.5847 37.007 97.1701C37.6922 97.9521 38.428 98.6876 39.2101 99.3682C39.5222 99.5901 39.8405 99.8057 40.1715 100.004C41.0169 100.643 41.9171 101.19 42.8721 101.647C42.9838 101.708 43.0724 101.843 42.9417 101.949C42.9403 101.949 42.9389 101.95 42.9375 101.95C42.9347 101.951 42.9318 101.952 42.929 101.955C43.241 102.133 43.5552 102.308 43.8714 102.481L43.8819 102.487C44.0095 102.556 44.2457 102.684 44.0611 102.834C43.9389 102.936 43.5615 102.754 43.3359 102.636C43.3674 102.652 43.4009 102.671 43.4344 102.69L43.435 102.691C43.4382 102.692 43.4421 102.694 43.4466 102.697C43.5401 102.747 43.8938 102.937 43.6585 103.06C43.5341 103.082 43.416 103.06 43.3022 102.999C43.1841 102.955 43.0661 102.906 42.9501 102.855C42.9543 102.893 42.9333 102.929 42.8721 102.959C42.8236 102.967 42.7772 102.967 42.7309 102.963C42.9881 103.109 43.2453 103.253 43.5046 103.394C43.5805 103.435 43.9389 103.633 43.7028 103.756C43.5868 103.779 43.4751 103.76 43.3675 103.701C43.1715 103.627 42.9775 103.54 42.7899 103.445C42.7689 103.433 42.7478 103.421 42.7268 103.41C42.7035 103.397 42.6803 103.384 42.6571 103.371C42.6233 103.371 42.5896 103.367 42.5559 103.361C42.7625 103.473 42.9712 103.58 43.182 103.686C43.3064 103.754 43.5151 103.891 43.3359 104.031C43.2115 104.126 42.8763 103.954 42.6782 103.842C42.6655 103.857 42.6507 103.874 42.6297 103.891C42.5004 103.989 42.1931 103.812 42.0381 103.722C42.0162 103.709 41.9973 103.698 41.9824 103.69C40.9368 103.128 39.9269 102.547 38.955 101.881C38.3605 101.499 37.7808 101.097 37.2136 100.66C36.1279 99.8183 35.1413 98.8398 34.2368 97.8084C33.6191 97.1025 33.2839 96.7052 32.6852 95.8492C31.7239 94.4712 30.9986 93.034 30.3008 91.5102C30.2903 91.4869 30.3113 91.4277 30.343 91.3686C30.1996 91.0156 30.0605 90.6584 29.9213 90.2886C29.5587 90.3372 29.194 90.371 28.8335 90.3921C27.9839 90.4407 27.1596 90.3646 26.3605 90.1892C25.3929 90.0645 24.4357 89.7898 23.5882 89.3586C23.0802 89.1029 22.591 88.8302 22.1272 88.5259C21.7119 88.304 21.3114 88.0504 20.9277 87.7545C19.2938 86.5033 18.4062 84.561 18.1891 82.5447C18.0225 81.657 17.9867 80.744 18.0858 79.8626C18.1575 79.2223 18.3008 78.5882 18.5095 77.9774C18.8953 76.6227 19.6142 75.3693 20.6557 74.4204C20.8307 74.2407 21.0141 74.0695 21.2102 73.9089C21.7899 73.4334 22.4477 73.0508 23.1476 72.7718C23.2825 72.7063 23.4196 72.645 23.5566 72.588L23.3901 72.2033C23.331 72.2202 23.1265 72.1864 23.1012 72.1145C23.0598 72.0017 23.02 71.8873 22.9803 71.7732C22.9554 71.7014 22.9304 71.6297 22.9052 71.5587C22.8672 71.5819 22.8187 71.5946 22.766 71.5967V71.8102C22.7681 71.8715 22.6522 72.2519 22.5889 72.0533C22.549 71.9422 22.5114 71.8295 22.4738 71.7167C22.4499 71.6449 22.4259 71.5731 22.4013 71.5016C22.3486 71.4678 22.3085 71.4277 22.2938 71.3812L22.2937 71.3811C22.2874 71.3621 22.2811 71.3431 22.2727 71.3241C22.2685 71.322 22.2622 71.322 22.2579 71.3199V71.3854C22.2601 71.4255 22.1546 71.7299 22.1357 71.6707C21.7709 70.6647 21.4737 69.6375 21.2418 68.5935C21.0837 68.0186 20.9593 67.4374 20.8644 66.8477C20.7611 66.3172 20.6705 65.7846 20.5925 65.2478L20.5735 65.1146C20.5725 65.1095 20.5714 65.1048 20.5704 65.1002C20.5693 65.0953 20.5682 65.0904 20.5672 65.085C20.5608 65.028 20.5545 64.9688 20.5461 64.9117C20.4617 64.3052 20.3922 63.6965 20.3395 63.0835C20.2277 61.8239 20.1835 60.5579 20.1961 59.294C20.179 59.3006 20.1627 59.3089 20.1462 59.3172C20.1363 59.3223 20.1263 59.3273 20.116 59.3321C19.5683 59.5658 18.9896 59.7569 18.4008 59.9091C17.3878 61.3767 15.7705 62.3698 13.8325 62.4742C13.1762 62.5097 12.488 62.4296 11.8509 62.2439C11.7847 62.2591 11.7164 62.2713 11.6456 62.2806C11.3128 62.3242 11.0449 62.2528 10.7676 62.1789C10.6123 62.1375 10.454 62.0952 10.2797 62.072C10.2167 62.0637 10.1546 62.0557 10.0932 62.0478C9.39666 61.958 8.80261 61.8815 8.34033 61.4657C8.18496 61.4693 8.03654 61.4466 7.8955 61.4044C6.56163 61.725 5.14427 61.0182 4.67519 59.5371C3.87512 59.0671 3.2376 58.3698 2.809 57.5608C1.98342 56.4998 1.32334 55.1989 0.913921 53.8321C0.911395 53.827 0.908768 53.8219 0.906134 53.8168C0.902173 53.8091 0.898197 53.8014 0.894525 53.7934C0.686866 53.342 0.58799 52.8578 0.579558 52.3721C0.358616 50.9886 0.416803 49.6034 0.836971 48.3858C0.819262 47.7258 0.974005 47.0378 1.25735 46.4137C1.60078 45.6569 2.12446 44.7867 2.80394 44.282C2.80563 43.5064 3.13809 42.6525 3.57386 42.0739C4.4435 40.918 5.70464 40.307 7.0695 40.2186C7.76352 38.435 9.86647 38.0185 11.6804 38.6121C12.4339 37.8403 13.5375 37.4717 14.6391 37.6029C15.5705 37.7139 16.3665 38.1605 17.0256 38.7759C17.1993 38.8256 17.3724 38.8774 17.5452 38.9313C18.1223 38.6775 18.7954 38.62 19.4112 38.7791C20.4786 39.0549 21.175 39.8657 21.6567 40.7956C21.8104 40.9017 21.9605 41.0112 22.107 41.1255C22.2679 41.1978 22.414 41.2944 22.5466 41.4081C22.7393 41.511 22.9029 41.6803 23.0026 41.9259C23.2745 42.207 23.5275 42.5044 23.7514 42.8233C23.919 42.4346 24.0919 42.0487 24.2705 41.6655C24.5612 41.7532 24.9126 41.6397 25.0589 41.2504L25.0962 41.1513C26.0313 38.6636 27.6961 34.2343 29.2661 32.1786C27.4092 33.4461 25.142 34.1142 22.89 34.047C22.7936 34.044 22.6965 34.04 22.5984 34.0347C21.3879 34.244 20.1582 34.2634 19.0292 34.0364C18.269 33.7598 17.5282 33.43 16.8103 33.057C16.6358 32.9661 16.4627 32.8706 16.2902 32.7742C16.2362 32.7286 16.185 32.6791 16.1339 32.6297C16.1137 32.6102 16.0936 32.5908 16.0733 32.5715C15.9249 32.5823 15.7695 32.5707 15.6042 32.5267C14.9829 32.3621 14.408 31.9476 14.0475 31.415C13.9804 31.3159 13.9265 31.2138 13.8784 31.1109C13.4873 30.7275 13.1485 30.2932 12.8996 29.7853C12.6065 29.1914 12.4273 28.5236 12.4084 27.8557C12.2861 27.2005 12.2945 26.5263 12.5222 25.9007C12.5381 25.8581 12.5557 25.8163 12.5735 25.7743C12.5838 25.7497 12.5943 25.7249 12.6044 25.6999C12.6096 25.6826 12.6141 25.665 12.6185 25.6472C12.625 25.6217 12.6315 25.596 12.6403 25.571C12.7069 25.348 12.7916 25.1493 12.8945 24.9612C12.9327 24.7679 12.9951 24.5762 13.0832 24.3895C13.0931 24.2993 13.1053 24.209 13.1199 24.1192C12.4499 22.8522 12.6873 21.1952 13.6901 20.1653C13.5514 19.4995 13.6927 18.7936 14.0968 18.2029C14.3937 17.7688 14.8062 17.4262 15.2736 17.1884C15.3223 17.1637 15.4514 17.1212 15.6057 17.0724C15.7785 16.9192 15.9609 16.7742 16.1606 16.6465C16.208 15.408 17.4412 14.6936 18.509 14.0751C18.5605 14.0452 18.6117 14.0155 18.6624 13.986C19.0102 13.7836 19.2625 13.4928 19.5149 13.2019C19.78 12.8964 20.0452 12.5907 20.4213 12.387C21.0791 12.0309 21.8876 11.949 22.6465 11.8722C22.8141 11.8552 22.9794 11.8385 23.14 11.8191C25.2329 11.5663 27.4615 11.371 29.5648 11.5995C30.7326 11.7263 31.6996 12.2916 32.0995 13.2178C33.1041 13.3368 33.9995 14.0634 34.7078 14.8107C35.592 15.7434 36.3449 16.7363 36.6044 17.962C36.7772 18.0556 36.9343 18.1701 37.0762 18.2995C37.0709 19.1614 36.9588 20.0247 36.7214 20.8382C36.7912 21.3245 36.6451 21.7889 36.398 22.2099C36.4357 22.6085 36.4087 23.001 36.3255 23.3922C36.8061 24.2471 36.3562 25.5391 35.6829 26.3868L35.6778 26.8649C35.7179 26.844 35.7569 26.8192 35.7933 26.7882C37.7302 25.1359 39.7013 24.6805 41.8304 24.1885C43.0599 23.9044 44.342 23.6082 45.7007 23.0623C49.0481 22.4145 52.4647 22.0021 55.8935 21.865C55.8742 21.8621 55.8549 21.8595 55.8356 21.857C55.8096 21.8536 55.7836 21.8502 55.7578 21.8459C54.0299 21.5623 52.3703 20.8498 50.943 19.8263C50.5652 19.7303 50.207 19.5593 49.8864 19.2734C49.5748 18.9957 49.3591 18.6753 49.2351 18.3316C49.1786 18.271 49.1228 18.2099 49.0677 18.1477C47.9963 17.884 47.1805 16.9547 47.3171 15.7331C46.6387 14.928 46.389 13.934 46.6186 12.8991C46.2396 12.2572 46.2065 11.4479 46.4894 10.7701C45.8936 10.0448 45.8472 9.01508 46.3144 8.1944C45.8879 7.58677 45.7937 6.78153 46.3199 6.06188C46.5682 5.72203 46.9123 5.50772 47.2871 5.40416C47.393 5.01252 47.6082 4.64879 47.9464 4.36791C48.1203 4.22355 48.3025 4.1164 48.4886 4.03651C48.5586 3.6322 48.7865 3.24881 49.225 2.94721C49.424 2.81047 49.6277 2.72212 49.8301 2.67309C50.0217 2.19755 50.3561 1.78056 50.8264 1.50982C51.3944 1.18328 52.0549 1.13995 52.6568 1.31115C53.4427 0.120399 55.1672 -0.34119 56.3628 0.542043C57.3583 -0.0755226 58.6106 0.0546692 59.5053 0.805597C60.5873 0.164571 61.9308 0.423264 62.7794 1.31706C64.139 0.572266 65.9335 1.12241 66.6615 2.5336C68.0335 2.381 69.3265 3.28135 69.6922 4.58454C69.7519 4.63304 69.8108 4.68297 69.8697 4.73286L69.8847 4.74559C70.7067 4.78511 71.4878 5.10805 71.9484 5.87441C72.1787 6.25717 72.2849 6.70692 72.2693 7.14758C72.7607 7.41389 73.1577 7.85075 73.3279 8.41695C73.4872 8.94787 73.4272 9.47307 73.2176 9.93064C73.9019 10.6604 74.0828 11.7979 73.5979 12.7146C73.7986 13.0595 73.903 13.4672 73.8865 13.8909C73.8623 14.5184 73.572 15.0242 73.1771 15.456C73.6736 16.3542 73.4801 17.5065 72.673 18.1363C72.2094 19.784 71.036 20.8803 69.2381 21.5528C68.3352 21.8905 67.3905 22.1507 66.4277 22.3418C70.2804 22.8615 74.0708 23.7749 77.7117 25.1369C77.9099 25.2111 78.0779 25.1821 78.2063 25.0957C78.2412 25.1142 78.2765 25.1322 78.3118 25.1501C78.3568 25.173 78.4018 25.1959 78.4462 25.2201C79.4497 25.7718 80.4321 26.3699 81.3893 27.0103C81.3893 26.9046 81.3914 26.7989 81.3956 26.6911C81.377 25.8214 81.4683 24.9648 81.6988 24.1391C81.3973 23.7272 81.1717 23.2575 81.049 22.7736C80.7427 21.5659 81.3254 19.8474 82.3721 19.4349C82.7389 18.4149 83.5732 17.6768 84.5956 17.3864C84.6768 17.3131 84.763 17.2419 84.8594 17.1757C85.0746 17.0274 85.3101 16.9261 85.5522 16.8674C85.678 16.3147 85.9856 15.806 86.4958 15.449C87.2157 14.9449 88.0673 14.8902 88.8153 15.1652C88.9576 15.1172 89.102 15.0755 89.2477 15.0394C90.4519 14.0118 92.3288 14.0875 93.3884 15.2899C94.1157 14.9566 94.9729 14.9418 95.7176 15.3902C96.3133 15.7491 96.6842 16.3278 96.8292 16.9629C97.9571 16.9976 98.9889 17.7479 99.3142 18.8676C100.354 18.9855 101.204 19.8009 101.384 20.8272C102.047 20.9198 102.66 21.2322 103.032 21.8533C103.204 22.1406 103.298 22.4548 103.322 22.7695C103.657 22.9308 103.958 23.1749 104.185 23.4938C104.583 24.0526 104.659 24.7051 104.513 25.3191C104.527 25.3469 104.541 25.3744 104.555 25.402C104.576 25.4418 104.596 25.4816 104.616 25.5224C104.724 25.7532 104.811 26.0007 104.888 26.252C105.237 26.7573 105.399 27.3751 105.367 27.9956C105.441 28.2581 105.513 28.5212 105.573 28.7856C105.809 29.8234 105.897 30.9287 105.735 31.9855C105.655 32.4969 105.539 33 105.374 33.4882C105.358 33.5812 105.33 33.6678 105.299 33.7502C105.208 34.1349 105.092 34.5132 104.944 34.8831C104.59 35.3544 104.219 35.813 103.829 36.2569C103.5 36.7514 103.125 37.2079 102.701 37.6264C102.396 37.9286 102.06 38.2097 101.704 38.4634C100.997 39.0317 100.205 39.4749 99.361 39.7632C99.2103 39.7315 99.0587 39.7067 98.9069 39.6824C97.9481 40.2116 96.4394 40.2715 95.5169 40.2679C94.5003 40.2641 93.5693 40.0066 92.7952 39.5203C92.8407 39.6112 92.8863 39.7021 92.9318 39.7931C92.9759 39.8814 93.02 39.9698 93.0642 40.0582C93.0418 40.0711 93.0178 40.0827 92.9984 40.0977C92.831 39.8198 92.6442 39.5729 92.4241 39.3954C92.1237 39.1526 91.6392 39.1308 91.4309 39.5237C91.429 39.5271 91.4272 39.5306 91.4253 39.534C91.4235 39.5375 91.4217 39.5409 91.42 39.5444C91.3089 39.7539 91.3245 39.9549 91.4092 40.1189C91.4333 40.1535 91.4572 40.1884 91.4811 40.2232L91.5018 40.2533C91.5049 40.2569 91.5079 40.2605 91.511 40.2641C91.5188 40.2735 91.5266 40.2828 91.5353 40.2913L91.5298 40.292C91.8176 40.5242 92.1009 41.0932 92.3695 41.6463C92.5512 41.9694 92.7241 42.2972 92.8862 42.6308C92.9809 42.7707 93.1489 42.8935 93.3277 42.9292C93.2927 43.1955 93.415 43.4709 93.6157 43.6074C93.6684 43.5009 93.7325 43.3918 93.8149 43.2794C94.721 42.0455 96.5012 41.5131 97.8418 42.077C98.1091 42.0318 98.3777 41.9944 98.6488 41.973C99.5339 41.9145 100.431 41.9842 101.305 42.1679C101.576 42.3311 101.836 42.5147 102.077 42.7242C102.282 42.9017 102.471 43.0877 102.649 43.28C102.786 43.383 102.92 43.492 103.052 43.6057C103.588 43.8946 103.982 44.4488 104.313 45.0004C104.575 45.3722 104.804 45.7672 105.002 46.1857C105.922 47.7623 106.982 49.7199 106.153 51.2701ZM32.4347 81.7395C32.772 82.1305 33.0356 82.5658 33.2253 83.0456C33.3012 83.1999 33.2084 83.2929 33.0524 83.2654C32.9829 83.2548 32.888 83.2041 32.791 83.1365C32.7984 83.1545 32.8063 83.1714 32.8142 83.1883C32.8221 83.2052 32.83 83.2221 32.8374 83.24C32.9196 83.4028 32.85 83.519 32.6624 83.4577C32.6519 83.4514 32.6413 83.4451 32.6329 83.4387C32.7299 83.612 32.8184 83.7896 32.8943 83.9755C32.9765 84.1404 32.9028 84.2545 32.7172 84.1911C32.6203 84.1362 32.5275 84.0728 32.4389 84.003C32.4498 84.0271 32.4608 84.051 32.4719 84.0749C32.5014 84.1391 32.5309 84.2031 32.557 84.2693C32.6413 84.4363 32.5444 84.5229 32.3799 84.4849C32.2387 84.4067 32.108 84.3137 31.9857 84.2059C31.9732 84.1962 31.9616 84.1855 31.9504 84.1752C31.9445 84.1698 31.9387 84.1645 31.933 84.1594C31.9878 84.2968 31.8845 84.3813 31.7474 84.3539C31.5535 84.3158 31.1888 83.9882 31.1002 83.8149C31.0987 83.8124 31.0974 83.81 31.0961 83.8075C31.0918 83.7994 31.0882 83.7913 31.0834 83.7832C30.9801 83.7135 30.8683 83.6162 30.784 83.5233C30.7165 83.6205 30.5858 83.6923 30.5268 83.574C30.3497 83.09 30.0735 82.6757 29.6962 82.327C29.4811 82.0121 29.2197 81.7437 28.914 81.5218C28.7496 81.3823 28.5788 81.2491 28.4038 81.1223C28.0939 80.9807 27.7714 80.8729 27.434 80.8011C27.3958 80.7891 27.3569 80.7798 27.318 80.7706C27.2884 80.7635 27.2588 80.7565 27.2295 80.7482L27.2047 80.7437C27.0635 80.7177 26.924 80.6921 26.7826 80.6721C26.1733 80.5876 25.5619 80.5728 24.9506 80.6278C24.8409 80.632 24.7355 80.5474 24.6891 80.4502C24.5521 80.4566 24.4172 80.4629 24.2801 80.4756C24.0546 80.484 24.1031 80.1649 24.2738 80.1332C24.4889 80.093 24.7039 80.0635 24.9147 80.0381C24.9105 80.0191 24.9084 79.9979 24.9126 79.981C24.5268 79.962 24.1431 79.9705 23.7552 80.0106C23.5865 80.0191 23.7868 79.7063 23.8796 79.6894C23.9015 79.685 23.9234 79.6817 23.9456 79.6784C23.9661 79.6754 23.9869 79.6723 24.0082 79.6682C24.004 79.6619 24.0019 79.6577 23.9998 79.6513H23.9892C23.7573 79.6619 23.5992 79.292 23.8775 79.2413C23.9109 79.2352 23.9438 79.2301 23.9764 79.225C24.0118 79.2195 24.0469 79.2141 24.082 79.2075C24.0693 79.1716 24.0672 79.1399 24.0799 79.1103C23.9597 79.1082 23.8416 79.1082 23.7215 79.1082C23.7529 79.1061 23.7805 79.0393 23.8094 78.9695C23.8404 78.8943 23.8729 78.8156 23.9133 78.8102L24.0988 78.7848C24.1031 78.7066 24.2211 78.5248 24.2717 78.5143C24.6723 78.4466 25.0644 78.4001 25.4523 78.3853C25.4903 78.2966 25.5451 78.1782 25.5978 78.1782C26.0384 78.1719 26.4621 78.1761 26.8838 78.2205C26.9007 78.2078 26.9175 78.2015 26.9323 78.2036C26.9567 78.2095 26.9803 78.2152 27.0037 78.2208C27.0468 78.2311 27.0888 78.2412 27.1326 78.2522C27.3666 78.286 27.6006 78.3346 27.8388 78.4044C28.4017 78.5713 28.9646 78.8355 29.4516 79.1631C29.9112 79.4717 30.3687 79.7929 30.7692 80.1776C30.9105 80.298 31.0433 80.4291 31.1698 80.5644C31.3743 80.7334 31.5725 80.9067 31.7622 81.0779C31.9941 81.2914 32.2197 81.5112 32.4347 81.7395Z" fill="black"/>
<path d="M64.9698 86.6431H71.0204C71.0204 86.6431 71.3842 88.9322 71.0204 89.296C70.6566 89.6599 69.1363 89.731 68.0333 89.731C66.9302 89.731 65.2007 89.5268 64.9698 89.296C64.7389 89.0652 64.9698 86.6431 64.9698 86.6431Z" fill="white"/>
<path fill-rule="evenodd" clip-rule="evenodd" d="M71.8079 80.1492C73.5241 77.7442 71.0933 75.4821 69.4979 74.512C69.08 74.2119 69.4117 73.2177 70.3048 73.3714C78.4169 74.7657 74.2137 88.7445 63.8566 81.0735C62.6235 80.0784 64.1168 77.8866 65.4458 78.7388C65.5132 78.7905 65.5839 78.8451 65.6575 78.9021C67.1507 80.057 69.8827 82.1701 71.8079 80.1492ZM55.4803 55.9417L55.0837 56.0111C53.8 56.2343 52.5303 56.7208 51.37 57.3073C49.1961 58.4061 47.0257 60.2087 45.9058 62.4032C45.7843 62.6414 46.0442 62.9671 46.2988 62.7963C48.2388 61.4944 50.0898 60.3087 52.3613 59.6592C53.3967 59.3631 54.4298 59.1852 55.5048 59.1235C55.838 59.1044 56.1647 59.1125 56.4845 59.1204C57.4165 59.1435 58.2906 59.1652 59.101 58.5091C59.7198 58.0082 59.5613 57.0355 59.101 56.5122C58.233 55.5254 56.7073 55.7294 55.4803 55.9417ZM76.6421 55.0902L76.3385 55.0281C75.9816 54.9566 75.6226 54.9868 75.3072 55.1152C74.9978 55.2411 74.7284 55.4603 74.5401 55.7766C74.2897 56.1978 74.2563 56.5513 74.3725 57.0182C74.4622 57.379 74.6588 57.6504 74.9161 57.8464C75.1873 58.0529 75.5309 58.1734 75.8879 58.2153C77.5346 58.4088 79.1561 58.7712 80.7326 59.2856C81.4714 59.5267 82.1684 59.8533 82.8594 60.1922L83.4549 60.4858C84.0042 60.7545 84.5716 61.0135 85.2887 61.2015C85.345 61.2163 85.4008 61.2302 85.456 61.2434C85.6313 61.1883 85.6782 61.1229 85.7158 61.0706L85.721 61.0634L85.7307 61.0503L85.7478 61.0289C85.799 60.9647 85.862 60.8663 85.8024 60.4073C84.2379 57.161 79.9457 55.7811 76.6421 55.0902ZM59.455 71.058C58.8131 71.4329 58.1271 71.2512 57.5804 70.816C57.2421 70.5469 56.9856 70.2027 56.7284 69.8577C56.4269 69.4533 56.1247 69.0478 55.6891 68.761C55.0063 68.3113 54.0911 68.2876 53.306 68.4176C52.1274 68.6127 51.1098 69.1691 50.0893 69.727C49.5114 70.043 48.9325 70.3595 48.3229 70.6112C48.0864 70.7089 47.9481 70.4056 48.0275 70.227C49.0488 67.9309 51.1811 65.8829 53.7176 65.4726C56.37 65.0436 59.2397 66.7913 60.1657 69.3103C60.3993 69.9459 60.0112 70.7329 59.455 71.058ZM84.656 68.3818C84.7107 68.402 84.7659 68.3403 84.7498 68.2879C84.0792 66.1055 81.5531 65.1868 79.433 65.3687C78.1211 65.4814 76.9152 65.9614 75.9205 66.8376C74.9719 67.6735 74.2331 69.2553 75.0917 70.4118C75.9746 71.6008 77.7868 71.2164 77.8902 69.6537C77.9569 68.6402 79.7001 68.0149 80.5832 67.8589C81.9545 67.6169 83.3732 67.906 84.656 68.3818ZM70.6149 85.3104H70.6148L70.6138 85.3104C70.0334 85.3154 69.4827 85.3202 68.98 85.3226C68.3045 85.3253 67.629 85.3272 66.9533 85.3292L66.9486 85.3292H66.9484C65.0008 85.3349 63.0524 85.3406 61.1039 85.3628C60.1986 85.3733 59.2922 85.393 58.3855 85.4127L58.3852 85.4127C58.0415 85.4202 57.6977 85.4276 57.3539 85.4346C57.2848 85.4359 57.2148 85.4367 57.1444 85.4375L57.1436 85.4375C56.2896 85.4469 55.36 85.4571 55.0089 86.392C54.7664 87.0419 54.9179 87.9025 55.043 88.6132L55.0431 88.6136C55.0608 88.7141 55.0779 88.8115 55.0934 88.905C55.256 89.8941 55.5497 90.8473 55.9511 91.7667C56.6948 93.4723 57.8356 95.0046 59.342 96.1099C62.8089 98.6567 67.9427 98.3988 71.83 97.0356C76.0194 95.5667 79.8138 91.7751 79.3131 87.0219C79.2603 86.5104 78.8884 85.4325 78.1342 85.3881C76.0213 85.2635 73.0564 85.2892 70.6149 85.3104ZM64.9701 86.6433H71.0207C71.0207 86.6433 71.3845 88.9325 71.0207 89.2963C70.6569 89.6601 69.1366 89.7312 68.0336 89.7312C66.9305 89.7312 65.2009 89.5271 64.9701 89.2963C64.7392 89.0655 64.9701 86.6433 64.9701 86.6433Z" fill="black"/>
</svg>
